<svg xmlns="http://www.w3.org/2000/svg" width="1013.448" height="610.287" viewBox="0 0 1013.448 610.287">
  <g id="message" transform="translate(0 -0.018)">
    <path id="Tracé_1" data-name="Tracé 1" d="M782.744,493.253l8.69-1.5c.834-.146,1.661-.324,2.494-.475a71.336,71.336,0,0,1,45.549-131.5l-11.39,27.1,26.986-23.563a1.216,1.216,0,0,1,.184.062,71.34,71.34,0,0,1,43.588,90.991c-.451,1.285-.989,2.512-1.5,3.754,7.618-3.828,14.927-8.284,20.886-13.989,12.066-11.562,18.676-27.517,26.064-47.173,14.636-38.952,28.727-78.469,42.256-118.071a71.308,71.308,0,0,1-33.338-86.355c.725-2.059,1.565-4.042,2.455-5.99.222-.487.447-.972.679-1.452.9-1.867,1.86-3.7,2.908-5.452.171-.288.363-.557.538-.842q1.368-2.22,2.886-4.31c.377-.523.752-1.044,1.142-1.555,1.147-1.5,2.334-2.959,3.587-4.352.418-.466.862-.9,1.292-1.356q1.443-1.523,2.966-2.954c.535-.5,1.064-1.008,1.614-1.492.141-.124.272-.26.414-.383.007.009.013.019.019.028a71.29,71.29,0,0,1,91.213-2.049L1050.1,195.641l26.679-23.283a70.944,70.944,0,0,1,2.637,84.02l.075.024c-.291.428-.622.82-.922,1.24q-.844,1.184-1.728,2.325c-.758.976-1.545,1.919-2.349,2.85-.607.7-1.2,1.41-1.836,2.086-.924.988-1.892,1.924-2.866,2.854-.569.543-1.113,1.113-1.7,1.636q-2.3,2.055-4.76,3.9c-.575.431-1.182.811-1.769,1.223-1.151.81-2.308,1.608-3.5,2.347-.742.458-1.5.877-2.26,1.308-1.1.624-2.2,1.229-3.326,1.794-.8.4-1.6.781-2.417,1.151-1.157.527-2.328,1.016-3.512,1.482-.794.312-1.585.628-2.39.912-1.329.468-2.677.875-4.033,1.264-.685.2-1.358.422-2.049.6-2.034.519-4.092.961-6.173,1.3-.391.064-.79.088-1.183.145-1.725.251-3.459.454-5.208.577-.751.053-1.507.061-2.262.09-1.413.055-2.827.083-4.249.053-.829-.018-1.658-.06-2.49-.107q-2.077-.118-4.158-.362c-.82-.1-1.638-.189-2.459-.314-1.486-.226-2.971-.52-4.456-.843-.1-.021-.2-.034-.293-.056q-8.565,25.062-17.448,50.016a71.291,71.291,0,0,1,103.374,8.521l-24.664,27.276,33.394-13.331a71.1,71.1,0,0,1,2.854,54.309,69.98,69.98,0,0,1-9.062,17.532A71.312,71.312,0,0,1,964.74,398.89c-.627,1.676-1.234,3.373-1.863,5.048-6.519,17.341-14.63,38.922-30.918,54.525-11.041,10.576-24.625,17.285-37.658,22.958q-12.73,5.54-25.8,10.244a71.5,71.5,0,0,1-31.926,10.175c-13.747,3.819-27.668,7.007-41.719,9.468l-8.761,1.51c-7.874,1.349-15.947,2.737-23.96,4.337,1.154.342,2.309.669,3.457,1.073a71.363,71.363,0,0,1,47.639,69.428l-54.925,16.859,49.7,7.893a71.373,71.373,0,0,1-118.926,21.106q.757,2.535,1.52,5.063c1.009,3.349,2.01,6.678,2.971,9.976,13.078,44.938,7.45,80.288-15.851,99.532l-12.644-15.305c22.678-18.734,15.642-57.336,9.434-78.682-.944-3.238-1.929-6.509-2.92-9.8-8.518-28.3-18.174-60.373-5.668-89.848C684.773,510.029,739.1,500.727,782.744,493.253Z" transform="translate(-93.275 -144.859)" fill="#f2f2f2"/>
    <path id="Tracé_2" data-name="Tracé 2" d="M766.646,753.851H381.813a47.583,47.583,0,0,1-47.583-47.583V529.956a18.851,18.851,0,0,1,5.882-13.681l203.924-193.3a43.889,43.889,0,0,1,60.388,0l194.43,184.3a49.274,49.274,0,0,1,15.376,35.76V706.268a47.583,47.583,0,0,1-47.583,47.583Z" transform="translate(-93.275 -144.859)" fill="#3f3d56"/>
    <path id="Tracé_3" data-name="Tracé 3" d="M240.954,387.992h476V580.259a28.732,28.732,0,0,1-28.732,28.732H269.686a28.732,28.732,0,0,1-28.732-28.732V387.992Z" opacity="0.1"/>
    <path id="Tracé_4" data-name="Tracé 4" d="M333.73,521.351" transform="translate(-93.275 -144.859)" fill="none" stroke="#3f3d56" stroke-miterlimit="10" stroke-width="1"/>
    <rect id="Rectangle_1" data-name="Rectangle 1" width="354" height="354" rx="26.181" transform="translate(303.454 236.492)" fill="#ef2e41"/>
    <path id="Tracé_5" data-name="Tracé 5" d="M657.454,395.942v194.55h-354V395.942l177,85.55Z" opacity="0.1"/>
    <path id="Tracé_6" data-name="Tracé 6" d="M573.73,637.351,346.936,527.734a9.2,9.2,0,0,0-13.206,8.285v188.6a28.732,28.732,0,0,0,28.732,28.732H785a28.732,28.732,0,0,0,28.732-28.732V539.25a11.229,11.229,0,0,0-16.115-10.11Z" transform="translate(-93.275 -144.859)" fill="#3f3d56"/>
    <rect id="Rectangle_2" data-name="Rectangle 2" width="99" height="14" transform="translate(333.954 268.992)" fill="#f2f2f2"/>
    <rect id="Rectangle_3" data-name="Rectangle 3" width="294" height="8" transform="translate(325.954 319.992)" fill="#f2f2f2"/>
    <rect id="Rectangle_4" data-name="Rectangle 4" width="294" height="8" transform="translate(325.954 346.992)" fill="#f2f2f2"/>
    <rect id="Rectangle_5" data-name="Rectangle 5" width="294" height="8" transform="translate(325.954 373.992)" fill="#f2f2f2"/>
    <line id="Ligne_1" data-name="Ligne 1" x2="824" transform="translate(60.954 608.492)" fill="none" stroke="#3f3d56" stroke-miterlimit="10" stroke-width="1"/>
    <path id="Tracé_7" data-name="Tracé 7" d="M93.275,630.212c0,58.96,36.989,106.67,82.7,106.67" transform="translate(-93.275 -144.859)" fill="#46455b"/>
    <path id="Tracé_8" data-name="Tracé 8" d="M175.975,736.883c0-59.623,41.277-107.869,92.288-107.869" transform="translate(-93.275 -144.859)" fill="#ef2e41"/>
    <path id="Tracé_9" data-name="Tracé 9" d="M123.239,635.557c0,56.006,23.587,101.325,52.736,101.325" transform="translate(-93.275 -144.859)" fill="#ef2e41"/>
    <path id="Tracé_10" data-name="Tracé 10" d="M175.975,736.883c0-76.185,47.71-137.832,106.67-137.832" transform="translate(-93.275 -144.859)" fill="#46455b"/>
    <path id="Tracé_11" data-name="Tracé 11" d="M158.577,737.635s11.728-.361,15.263-2.878,18.041-5.522,18.918-1.486,17.625,20.076,4.384,20.183-30.766-2.062-34.294-4.211S158.577,737.635,158.577,737.635Z" transform="translate(-93.275 -144.859)" fill="#a8a8a8"/>
    <path id="Tracé_12" data-name="Tracé 12" d="M197.378,752.049c-13.241.107-30.766-2.062-34.294-4.211-2.687-1.636-3.757-7.509-4.115-10.218-.248.011-.392.015-.392.015s.743,9.459,4.271,11.608,21.053,4.318,34.294,4.211c3.822-.031,5.142-1.391,5.07-3.4C201.68,751.266,200.223,752.026,197.378,752.049Z" transform="translate(-93.275 -144.859)" opacity="0.2"/>
    <path id="Tracé_13" data-name="Tracé 13" d="M812.988,307.63c-.6,5.355-4.685,9.668-6.2,14.839-2.278,7.784,1.661,16.136,7.048,22.2a49.159,49.159,0,0,0,34.234,16.255,14.6,14.6,0,0,0,5.66-.617,12.117,12.117,0,0,0,4.306-2.943c4.057-4.074,6.235-9.718,7.1-15.4s.531-11.474.191-17.214a9.719,9.719,0,0,0-.636-3.472,8.9,8.9,0,0,0-2.235-2.747,52.072,52.072,0,0,0-9.59-6.966,11.009,11.009,0,0,1-4.018-3.075,9.936,9.936,0,0,1-1.242-3.681l-1.06-5.4A10.61,10.61,0,0,0,845,295.029c-1.872-2.525-5.452-2.868-8.592-2.992l-11.5-.451c-3.579-.14-8.294-1.167-11.788-.464-3.262.656-2.179,3.663-1.586,6.4A46.266,46.266,0,0,1,812.988,307.63Z" transform="translate(-93.275 -144.859)" fill="#a0616a"/>
    <path id="Tracé_14" data-name="Tracé 14" d="M812.988,307.63c-.6,5.355-4.685,9.668-6.2,14.839-2.278,7.784,1.661,16.136,7.048,22.2a49.159,49.159,0,0,0,34.234,16.255,14.6,14.6,0,0,0,5.66-.617,12.117,12.117,0,0,0,4.306-2.943c4.057-4.074,6.235-9.718,7.1-15.4s.531-11.474.191-17.214a9.719,9.719,0,0,0-.636-3.472,8.9,8.9,0,0,0-2.235-2.747,52.072,52.072,0,0,0-9.59-6.966,11.009,11.009,0,0,1-4.018-3.075,9.936,9.936,0,0,1-1.242-3.681l-1.06-5.4A10.61,10.61,0,0,0,845,295.029c-1.872-2.525-5.452-2.868-8.592-2.992l-11.5-.451c-3.579-.14-8.294-1.167-11.788-.464-3.262.656-2.179,3.663-1.586,6.4A46.266,46.266,0,0,1,812.988,307.63Z" transform="translate(-93.275 -144.859)" opacity="0.1"/>
    <path id="Tracé_15" data-name="Tracé 15" d="M886.177,548.641q-2.445,26.808-4.89,53.608c-1.276,14.061-2.577,28.179-5.079,42.058-.864,4.783-1.877,9.541-3.079,14.258-3.342,13.1-8.191,25.9-9.755,39.325-.049.387-.091.782-.132,1.177a34.186,34.186,0,0,1-1.671,8.726c-.782,2.05-1.984,3.919-2.832,5.944-1.688,4.05-1.91,8.529-2.116,12.916A55.682,55.682,0,0,0,837.45,720.1c-3.252-.486-6.874-.831-9.088-3.26-2.453-2.684-2.182-6.792-1.77-10.4q1.939-16.794,3.869-33.571a87.5,87.5,0,0,1,2.445-14.258c.445-1.556.98-3.087,1.523-4.618.749-2.107,1.506-4.215,2.074-6.38a76.833,76.833,0,0,0,1.712-10.628c1.325-11.262,2.922-22.5,4.322-33.752l.074-.593c2.1-17.057,3.7-34.2,3.235-51.377-.066-2.544-.173-5.088-.338-7.639-.23-3.7-.568-5.656,2.494-7.969,3.383-2.552,7.837-4.338,11.706-6.01,2.083-.906,25.018-9.047,25.553-7.261a44.686,44.686,0,0,1,1.68,11.706A130.243,130.243,0,0,1,886.177,548.641Z" transform="translate(-93.275 -144.859)" fill="#605d82"/>
    <path id="Tracé_16" data-name="Tracé 16" d="M876.207,644.308c-.864,4.783-1.877,9.541-3.079,14.258-3.342,13.1-8.191,25.9-9.755,39.325-.049.387-.091.782-.132,1.177-10.224-14.6-18.835-30.311-28.813-45.071.749-2.107,1.506-4.215,2.074-6.38a76.825,76.825,0,0,0,1.712-10.628c1.325-11.262,2.922-22.5,4.322-33.752l.074-.593a34.968,34.968,0,0,0,2.494,6.923c6.7,13.616,22.622,20.5,30.41,33.53Q875.874,643.7,876.207,644.308Z" transform="translate(-93.275 -144.859)" opacity="0.1"/>
    <path id="Tracé_17" data-name="Tracé 17" d="M793.242,524.578c.338,10.921,2.086,21.743,3.83,32.529l3.6,22.254c1.97,12.18,4.021,24.607,9.785,35.516,4.312,8.16,10.523,15.124,16.143,22.445,13.815,18,24.194,38.387,37.294,56.912,3.808,5.385,9.25,11.208,15.749,10.084,4.265-.738,7.363-4.289,10.715-7.027,3.953-3.228,8.716-5.59,11.826-9.636s3.719-10.771-.494-13.65a22.224,22.224,0,0,0-4.822-1.973c-6.531-2.484-10.759-8.862-13.449-15.312s-4.32-13.384-7.9-19.383c-7.787-13.031-23.71-19.913-30.413-33.534-3.754-7.629-4.112-16.422-4.4-24.92l-.732-21.662c-.08-2.369-.143-4.833.82-7,2.564-5.766,10.3-6.3,16.573-7.034a56.692,56.692,0,0,0,20.31-6.408c3.61-1.95,7.137-4.435,9.069-8.055,1.762-3.3,2.005-7.176,2.212-10.914l2.17-39.258c.187-3.378.357-6.87-.833-10.036-2.989-7.95-13.029-10.548-21.514-10.169-15.79.706-30.367,7.5-45.255,12.085a115.064,115.064,0,0,1-11.217,2.926c-3.341.671-7.385.392-10.572,1.467-5.667,1.911-5.523,14.3-6.327,19.445a163.687,163.687,0,0,0-2.165,30.305Z" transform="translate(-93.275 -144.859)" fill="#605d82"/>
    <path id="Tracé_18" data-name="Tracé 18" d="M877.5,705.964c1.392,1.4,1.847,3.461,2.21,5.405a184.59,184.59,0,0,1,3.126,32.692,5.338,5.338,0,0,0,.588,2.962,3.721,3.721,0,0,0,1.538,1.236c4.024,1.918,8.7-.755,12.049-3.692,6.216-5.445,11.476-12.755,11.829-21.011a48.786,48.786,0,0,1,.223-6.372c.546-3.108,2.361-5.817,3.96-8.537a72.053,72.053,0,0,0,6.545-14.672c.611-1.923,1.018-4.345-.489-5.687a5.482,5.482,0,0,0-1.792-.931l-18.178-6.75c-1.575-.585-5.5,9.484-6.117,10.585-1.522,2.693-3.035,4.221-6.088,4.843-3.117.634-6.827-.276-9.735,1.279C872.249,699.944,874.714,703.155,877.5,705.964Z" transform="translate(-93.275 -144.859)" fill="#535070"/>
    <path id="Tracé_19" data-name="Tracé 19" d="M849.449,712.178a5.574,5.574,0,0,0-1.384-1.754,6.259,6.259,0,0,0-2.791-.948c-3.461-.588-7.563-.975-9.951,1.6-2.239,2.412-1.854,6.34-3.727,9.047-.593.857-1.4,1.563-1.91,2.469a9.31,9.31,0,0,0-.838,4.429c-.1,4.2-.193,8.4.1,12.584.243,3.508.834,7.184,3.028,9.932,3.521,4.411,9.872,5.045,15.508,5.332l4.565.232a8.912,8.912,0,0,0,3.741-.343,6.159,6.159,0,0,0,3.227-3.551c2.376-5.906-1.387-12.27-3.705-18.2C852.646,726.189,853.125,718.622,849.449,712.178Z" transform="translate(-93.275 -144.859)" fill="#535070"/>
    <path id="Tracé_20" data-name="Tracé 20" d="M811.666,277.459a3.773,3.773,0,0,1,.257-1.76c.669-1.182,2.415-.861,3.732-.528,5.3,1.335,10.878.127,16.331.439s11.6,3.038,12.693,8.39a39.825,39.825,0,0,0,10.069-10.345c1.513-2.265,2.833-4.859,2.627-7.576-.3-3.918-3.584-6.848-6.628-9.333l-9.073-7.407a13.671,13.671,0,0,0-4.062-2.583c-2.1-.716-4.38-.375-6.594-.373-6.6,0-13.647-3-19.521.018-2.454,1.261-4.3,3.423-6.081,5.53l-8.1,9.586a5.12,5.12,0,0,0-1.294,2.2c-.23,1.17.37,2.325.58,3.5.383,2.141-.54,4.427.169,6.484,1.177,3.414,5.323,3.9,7.857,5.855.945.729,2.425,3.2,3.55,3.172C810.209,282.665,811.613,279.037,811.666,277.459Z" transform="translate(-93.275 -144.859)" fill="#3f3d56"/>
    <circle id="Ellipse_1" data-name="Ellipse 1" cx="25.931" cy="25.931" r="25.931" transform="translate(706.2 108.993)" fill="#a0616a"/>
    <path id="Tracé_21" data-name="Tracé 21" d="M831.48,336.536a12.562,12.562,0,0,0-12.229-8.416,3.729,3.729,0,0,1-2.256-.285,3.109,3.109,0,0,1-.927-1.159,45.3,45.3,0,0,1-3.781-8.938c-.414-1.373-.979-2.991-2.368-3.348A3.2,3.2,0,0,0,806.9,315.7a26.6,26.6,0,0,1-2.157,2.711c-3.261,2.916-9.043.258-12.5,2.934-.565.437-1.032,1-1.626,1.394a7.592,7.592,0,0,1-1.9.816,182.62,182.62,0,0,0-19.626,7.687c2.3,13.867,4.662,27.975,10.059,40.955,2.568,6.177,5.479,12.226,7.536,18.591,4.557,14.1,4.759,29.194,4.81,44.016.035,10.144-.015,20.5-3.3,30.1a28.408,28.408,0,0,0-1.853,6.613c-.2,2.287.468,4.809,2.321,6.164a7.938,7.938,0,0,0,3.581,1.258c5.687.834,11.42-.679,17.019-1.976,15.008-3.476,30.315-5.465,45.592-7.448l25.6-3.324a14.861,14.861,0,0,0,5.3-1.369c4.684-2.565,5.129-9.611,2.22-14.09-1.395-2.147-3.362-3.909-4.534-6.185s-1.272-5.46.746-7.037c4.1-3.207,2.879-9.158,3.075-14.362q.821-21.829-.222-43.674a86.976,86.976,0,0,1-.145-9.058,80.214,80.214,0,0,1,2.823-15.115l7.779-30.628c-2.032-3.211-5.923-5.248-9.609-6.173s-7.525-1.2-11.154-2.322c-7.436-2.3-14.057-8.152-21.823-7.607a3.961,3.961,0,0,0-1.691.413c-1.751.992-1.474,3.516-1.586,5.526-.248,4.447-3.518,8.163-7.13,10.769s-7.737,4.506-11.054,7.478a4.933,4.933,0,0,0-1.962,3.774Z" transform="translate(-93.275 -144.859)" fill="#3f3d56"/>
    <path id="Tracé_22" data-name="Tracé 22" d="M728.73,365.587a30.613,30.613,0,0,1-5.454,2.807,17.929,17.929,0,0,0-5.225,2.536,8.189,8.189,0,0,0-1.817,2.245,9.983,9.983,0,0,0,9.206,14.874,20.039,20.039,0,0,0,6.808-2.03l18.29-7.925c3.1-1.341,6.44-2.914,7.9-5.954a1.383,1.383,0,0,0,.178-.945,1.562,1.562,0,0,0-.751-.79,40.867,40.867,0,0,1-10.65-10.042c-.75-1.019-1.669-3.424-2.729-4.035C740.616,354.1,731.829,363.576,728.73,365.587Z" transform="translate(-93.275 -144.859)" fill="#a0616a"/>
    <path id="Tracé_23" data-name="Tracé 23" d="M924.258,359.084l6.743,7.7c1.448,1.654,2.9,3.309,4.216,5.067A59.137,59.137,0,0,1,942.94,386.4c1.466,3.846,2.682,7.943,2.17,12.027a29.425,29.425,0,0,1-1.687,6.117,76.134,76.134,0,0,1-4.582,11.036,62.856,62.856,0,0,1-5.156,7.727,180.44,180.44,0,0,1-17.094,19.552c-2.305,2.282-3.272,5.972-4.276,9.057-1.851,5.69-6.255,10.121-10.515,14.323a29.235,29.235,0,0,1-4.515,3.885,14.706,14.706,0,0,1-8.216,2.34,9.018,9.018,0,0,1-3.7-.766c-2.915-1.384-4.4-4.754-4.7-7.967a16.946,16.946,0,0,1,1.418-8.521c3.869-8.572,13.806-12.286,20.83-18.54,4.119-3.667,7.268-8.274,10.374-12.831a44.349,44.349,0,0,0,5.247-9.2c1.569-4.185.958-9.14,2.328-13.394.579-1.8,1.609-3.422,2.232-5.206s.78-3.9-.31-5.445a7.913,7.913,0,0,0-3.053-2.235c-4.487-2.277-9.512-5.208-10.371-10.166a10.892,10.892,0,0,1,2.009-7.764,32.349,32.349,0,0,1,5.658-5.93C918.995,362.771,922.295,360.819,924.258,359.084Z" transform="translate(-93.275 -144.859)" fill="#a0616a"/>
    <path id="Tracé_24" data-name="Tracé 24" d="M724.4,376.34c-1.191-2.405-2.679-4.859-5.082-6.055a9.364,9.364,0,0,0-7.387-.031,27.773,27.773,0,0,0-6.483,3.92l-5.812,4.284a14.308,14.308,0,0,0-3.451,3.185,13.447,13.447,0,0,0-1.8,4.931,35.249,35.249,0,0,0-.914,12.2c.922,6.554,4.874,12.276,9.224,17.266,2.718,3.118,6.073,6.264,10.207,6.4,1.784.057,3.769-.646,4.511-2.27a5.662,5.662,0,0,0,.4-2.022c.447-7.311-2.169-14.452-5.218-21.111a13.536,13.536,0,0,1-1.683-5.673,1.556,1.556,0,0,1,.248-.95,1.6,1.6,0,0,1,.992-.484c4.174-.826,11.364,2.417,14.292-2.218C728.351,384.7,725.75,379.065,724.4,376.34Z" transform="translate(-93.275 -144.859)" fill="#a0616a"/>
    <path id="Tracé_25" data-name="Tracé 25" d="M810.306,269.3a3.773,3.773,0,0,1,.257-1.76c.669-1.182,2.415-.861,3.732-.528,5.3,1.335,10.878.127,16.331.439s11.6,3.038,12.693,8.39a39.824,39.824,0,0,0,10.069-10.345c1.513-2.265,2.833-4.859,2.627-7.576-.3-3.918-3.584-6.848-6.628-9.333l-9.073-7.407a13.672,13.672,0,0,0-4.062-2.583c-2.1-.716-4.38-.375-6.594-.373-6.6,0-13.647-3-19.521.018-2.454,1.261-4.3,3.423-6.081,5.53l-8.1,9.586a5.12,5.12,0,0,0-1.294,2.2c-.23,1.17.37,2.325.58,3.5.383,2.141-.54,4.427.169,6.484,1.177,3.414,5.323,3.9,7.857,5.855.945.729,2.425,3.2,3.55,3.172C808.849,274.505,810.253,270.877,810.306,269.3Z" transform="translate(-93.275 -144.859)" fill="#3f3d56"/>
    <path id="Tracé_26" data-name="Tracé 26" d="M755.229,340.364a10.54,10.54,0,0,0-2.714,2.527c-.951,1.438-1.144,3.252-1.961,4.77-1.748,3.248-5.835,4.4-8.385,7.067a2.64,2.64,0,0,0-.806,1.382,3.08,3.08,0,0,0,.685,1.99l12.3,19.332c4.094.361,8.022-2.2,12.118-1.864,1.529.127,3.094.655,4.561.2a13.079,13.079,0,0,0,2.927-1.79c2.444-1.545,5.7-1.725,7.748-3.764,1.968-1.956,2.219-5.017,2.2-7.792a31.321,31.321,0,0,0-.731-7.168c-1.81-7.42-7.485-13.115-11.043-19.687-1.732-3.2-2.674-5.073-6.34-2.876C762.095,334.9,758.7,337.828,755.229,340.364Z" transform="translate(-93.275 -144.859)" fill="#3f3d56"/>
    <path id="Tracé_27" data-name="Tracé 27" d="M904.571,330.588a28.768,28.768,0,0,1,6.186,5.419c1.873,2.415,2.934,5.372,4.734,7.842,1.744,2.4,4.119,4.25,6.1,6.455,3,3.345,5.033,7.425,7.029,11.451a171.061,171.061,0,0,1-15.906,17.977,5.13,5.13,0,0,1-2.415,1.588,3.9,3.9,0,0,1-3.414-1.392c-.886-.929-1.513-2.075-2.36-3.039A12.161,12.161,0,0,0,897,373.253a51.632,51.632,0,0,0-8.518-.117,3.367,3.367,0,0,1-1.819-.306,3.056,3.056,0,0,1-.993-1.138c-3.329-5.665-2.258-12.778-1.084-19.243l2.7-14.835a33.3,33.3,0,0,1,2.243-8.245c1.021-2.182,3.3-5.881,6.111-5.228C898.468,324.8,902.19,328.876,904.571,330.588Z" transform="translate(-93.275 -144.859)" fill="#3f3d56"/>
    <ellipse id="Ellipse_2" data-name="Ellipse 2" cx="41" cy="41.075" rx="41" ry="41.075" transform="translate(276.954 200.991)" fill="#fff"/>
    <path id="Tracé_28" data-name="Tracé 28" d="M411.23,338.851a49,49,0,1,0,49,49A49,49,0,0,0,411.23,338.851Zm-10.059,75.125-25.112-25.112,7.044-7.044,18.092,18.092,38.187-38.187,7.044,7.044L401.17,413.976Z" transform="translate(-93.275 -144.859)" fill="#00e1a1"/>
  </g>
</svg>
